<?xml version="1.0" standalone="no"?><!DOCTYPE svg PUBLIC "-//W3C//DTD SVG 1.1//EN" "http://www.w3.org/Graphics/SVG/1.1/DTD/svg11.dtd"><svg t="1585034666642" class="icon" viewBox="0 0 1024 1024" version="1.1" xmlns="http://www.w3.org/2000/svg" p-id="26937" xmlns:xlink="http://www.w3.org/1999/xlink" width="200" height="200"><defs><style type="text/css"></style></defs><path d="M670.634667 661.461333a21.418667 21.418667 0 0 1-19.370667-30.208l34.005333-76.544c26.069333-67.754667 87.125333-226.474667-90.453333-344.832-72.661333-48.469333-73.514667-121.344-73.514667-124.416a21.333333 21.333333 0 0 1 42.666667 0c0.042667 2.005333 1.408 53.546667 54.485333 88.917334 205.994667 137.344 131.157333 331.733333 106.581334 395.648l-4.992 13.226666-30.037334 65.749334a21.248 21.248 0 0 1-19.370666 12.458666z" fill="#d81e06" p-id="26938"></path><path d="M713.344 554.794667a21.333333 21.333333 0 0 1-21.333333-21.333334c0-58.453333-15.018667-98.176-97.152-152.917333-72.661333-48.469333-73.514667-121.344-73.514667-124.416a21.333333 21.333333 0 0 1 42.666667 0c0.042667 2.005333 1.408 53.546667 54.485333 88.917333 97.152 64.810667 116.181333 118.144 116.181333 188.416a21.333333 21.333333 0 0 1-21.333333 21.333334zM390.144 959.914667c-63.061333 0-111.104-28.885333-122.410667-73.557334-5.504-21.888-1.536-44.928 11.562667-66.688 20.394667-33.962667 61.269333-61.269333 109.312-73.045333a212.778667 212.778667 0 0 1 50.602667-6.229333c63.061333 0 111.104 28.885333 122.410666 73.557333 5.504 21.888 1.536 44.928-11.562666 66.688-20.394667 33.962667-61.269333 61.269333-109.312 73.045333a215.253333 215.253333 0 0 1-50.602667 6.229334z m49.024-176.896c-13.269333 0-26.88 1.706667-40.405333 4.992-36.693333 9.045333-68.48 29.525333-82.901334 53.589333-4.949333 8.234667-10.154667 20.864-6.741333 34.261333 6.186667 24.362667 39.466667 41.386667 81.024 41.386667 13.312 0 26.88-1.706667 40.405333-4.992 36.693333-9.045333 68.48-29.525333 82.901334-53.589333 4.949333-8.234667 10.154667-20.864 6.741333-34.261334-6.144-24.362667-39.424-41.386667-81.024-41.386666z" fill="#d81e06" p-id="26939"></path><path d="M542.677333 853.461333a21.333333 21.333333 0 0 1-21.333333-21.333333v-746.666667a21.333333 21.333333 0 0 1 42.666667 0v746.666667a21.333333 21.333333 0 0 1-21.333334 21.333333z" fill="#d81e06" p-id="26940"></path></svg>