<svg xmlns="http://www.w3.org/2000/svg" xmlns:xlink="http://www.w3.org/1999/xlink">
<symbol viewBox="0 0 24 24" id="musicR">


</symbol>


<symbol viewBox="0 0 24 24" id="music">
<title>Music</title>
<path d="M670.634667 661.461333a21.418667 21.418667 0 0 1-19.370667-30.208l34.005333-76.544c26.069333-67.754667 87.125333-226.474667-90.453333-344.832-72.661333-48.469333-73.514667-121.344-73.514667-124.416a21.333333 21.333333 0 0 1 42.666667 0c0.042667 2.005333 1.408 53.546667 54.485333 88.917334 205.994667 137.344 131.157333 331.733333 106.581334 395.648l-4.992 13.226666-30.037334 65.749334a21.248 21.248 0 0 1-19.370666 12.458666z" fill="#d81e06" p-id="26938"></path><path d="M713.344 554.794667a21.333333 21.333333 0 0 1-21.333333-21.333334c0-58.453333-15.018667-98.176-97.152-152.917333-72.661333-48.469333-73.514667-121.344-73.514667-124.416a21.333333 21.333333 0 0 1 42.666667 0c0.042667 2.005333 1.408 53.546667 54.485333 88.917333 97.152 64.810667 116.181333 118.144 116.181333 188.416a21.333333 21.333333 0 0 1-21.333333 21.333334zM390.144 959.914667c-63.061333 0-111.104-28.885333-122.410667-73.557334-5.504-21.888-1.536-44.928 11.562667-66.688 20.394667-33.962667 61.269333-61.269333 109.312-73.045333a212.778667 212.778667 0 0 1 50.602667-6.229333c63.061333 0 111.104 28.885333 122.410666 73.557333 5.504 21.888 1.536 44.928-11.562666 66.688-20.394667 33.962667-61.269333 61.269333-109.312 73.045333a215.253333 215.253333 0 0 1-50.602667 6.229334z m49.024-176.896c-13.269333 0-26.88 1.706667-40.405333 4.992-36.693333 9.045333-68.48 29.525333-82.901334 53.589333-4.949333 8.234667-10.154667 20.864-6.741333 34.261333 6.186667 24.362667 39.466667 41.386667 81.024 41.386667 13.312 0 26.88-1.706667 40.405333-4.992 36.693333-9.045333 68.48-29.525333 82.901334-53.589333 4.949333-8.234667 10.154667-20.864 6.741333-34.261334-6.144-24.362667-39.424-41.386667-81.024-41.386666z" fill="#d81e06" p-id="26939"></path><path d="M542.677333 853.461333a21.333333 21.333333 0 0 1-21.333333-21.333333v-746.666667a21.333333 21.333333 0 0 1 42.666667 0v746.666667a21.333333 21.333333 0 0 1-21.333334 21.333333z" fill="#d81e06" ></path>
</symbol>
      <symbol viewBox="0 0 24 24" id="heart">
        <path
     
          d="M17,0c-1.9,0-3.7,0.8-5,2.1C10.7,0.8,8.9,0,7,0C3.1,0,0,3.1,0,7c0,6.4,10.9,15.4,11.4,15.8 c0.2,0.2,0.4,0.2,0.6,0.2s0.4-0.1,0.6-0.2C13.1,22.4,24,13.4,24,7C24,3.1,20.9,0,17,0z"
        />
      </symbol>
      <symbol viewBox="0 0 32 32" id="arrow">
        <title>Arrow</title>
        <path
      
          d="M16,0C7.2,0,0,7.2,0,16s7.2,16,16,16s16-7.2,16-16S24.8,0,16,0z M22.8,13.6l-6,8C16.6,21.9,16.3,22,16,22 s-0.6-0.1-0.8-0.4l-6-8c-0.2-0.3-0.3-0.7-0.1-1S9.6,12,10,12h12c0.4,0,0.7,0.2,0.9,0.6S23,13.3,22.8,13.6z"
        />
      </symbol>
      <symbol id="infinity" viewBox="0 0 32 32">
             <title>infinity</title>
             <path
               d="M29.312 20.832c-1.28 1.28-3.008 1.984-4.832 1.984s-3.52-0.704-4.832-1.984c-0.032-0.032-0.224-0.224-0.256-0.256v0 1.28c0 0.448-0.352 0.8-0.8 0.8s-0.8-0.352-0.8-0.8v-3.168c0-0.448 0.352-0.8 0.8-0.8h3.168c0.448 0 0.8 0.352 0.8 0.8s-0.352 0.8-0.8 0.8h-1.28c0.032 0.032 0.224 0.224 0.256 0.256 0.992 0.992 2.304 1.536 3.68 1.536 1.408 0 2.72-0.544 3.68-1.536 0.992-0.992 1.536-2.304 1.536-3.68s-0.544-2.72-1.536-3.68c-0.992-0.992-2.304-1.536-3.68-1.536-1.408 0-2.72 0.544-3.68 1.536l-8.416 8.448c-1.312 1.312-3.072 1.984-4.832 1.984s-3.488-0.672-4.832-1.984c-2.656-2.656-2.656-6.976 0-9.632s6.976-2.656 9.632 0c0.032 0.032 0.16 0.16 0.192 0.192l0.064 0.064v-1.28c0-0.448 0.352-0.8 0.8-0.8s0.8 0.352 0.8 0.8v3.168c0 0.448-0.352 0.8-0.8 0.8h-3.168c-0.448 0-0.8-0.352-0.8-0.8s0.352-0.8 0.8-0.8h1.28l-0.096-0.064c-0.032-0.032-0.16-0.16-0.192-0.192-0.992-0.992-2.304-1.536-3.68-1.536s-2.72 0.544-3.68 1.536c-2.048 2.048-2.048 5.344 0 7.392 0.992 0.992 2.304 1.536 3.68 1.536s2.72-0.544 3.68-1.536l8.512-8.512c1.28-1.28 3.008-1.984 4.832-1.984s3.52 0.704 4.832 1.984c2.624 2.656 2.624 7.008-0.032 9.664z">
             </path>
             <path
               d="M24.512 23.488c-1.6 0-3.136-0.512-4.416-1.44-0.128 0.704-0.736 1.248-1.44 1.248-0.8 0-1.472-0.672-1.472-1.472v-3.168c0-0.8 0.672-1.472 1.472-1.472h3.168c0.8 0 1.472 0.672 1.472 1.472 0 0.608-0.384 1.152-0.928 1.376 0.64 0.352 1.376 0.544 2.144 0.544 1.216 0 2.368-0.48 3.2-1.344 0.864-0.864 1.344-1.984 1.344-3.2s-0.48-2.368-1.344-3.2c-0.864-0.864-1.984-1.344-3.2-1.344s-2.368 0.48-3.2 1.344l-8.512 8.48c-1.408 1.408-3.296 2.176-5.312 2.176s-3.872-0.768-5.312-2.176c-2.912-2.912-2.912-7.68 0-10.592 1.408-1.408 3.296-2.176 5.312-2.176 0 0 0 0 0 0 1.6 0 3.136 0.512 4.416 1.44 0.128-0.704 0.736-1.248 1.472-1.248 0.8 0 1.472 0.672 1.472 1.472v3.168c0 0.8-0.672 1.472-1.472 1.472h-3.168c-0.8 0-1.472-0.672-1.472-1.472 0-0.608 0.384-1.152 0.928-1.376-0.64-0.352-1.376-0.544-2.144-0.544-1.216 0-2.368 0.48-3.2 1.344-1.76 1.76-1.76 4.64 0 6.432 0.864 0.864 2.016 1.344 3.2 1.344 1.216 0 2.368-0.48 3.2-1.344l8.48-8.544c1.408-1.408 3.296-2.208 5.312-2.208s3.872 0.768 5.312 2.208c1.408 1.408 2.176 3.296 2.176 5.312s-0.768 3.872-2.208 5.312v0c0 0 0 0 0 0-1.408 1.408-3.296 2.176-5.28 2.176zM18.752 18.912l1.44 1.44c1.152 1.152 2.688 1.792 4.32 1.792s3.168-0.64 4.32-1.792v0c1.152-1.152 1.792-2.688 1.792-4.32s-0.64-3.168-1.792-4.32c-1.152-1.152-2.688-1.792-4.352-1.792-1.632 0-3.168 0.64-4.32 1.792l-8.48 8.448c-1.12 1.12-2.592 1.728-4.16 1.728s-3.072-0.608-4.16-1.728c-2.304-2.304-2.304-6.048 0-8.352 1.12-1.12 2.592-1.728 4.16-1.728s3.072 0.608 4.16 1.728l1.44 1.408h-2.912c-0.064 0-0.128 0.064-0.128 0.128s0.064 0.128 0.128 0.128h3.168c0.064 0 0.128-0.064 0.128-0.128v-3.168c0-0.064-0.064-0.128-0.128-0.128s-0.128 0.064-0.128 0.128v2.912l-1.408-1.408c-1.152-1.152-2.688-1.792-4.352-1.792-1.632 0-3.168 0.64-4.32 1.792-2.4 2.4-2.4 6.272 0 8.672 1.152 1.152 2.688 1.792 4.32 1.792s3.168-0.64 4.32-1.792l8.512-8.512c1.12-1.12 2.592-1.728 4.16-1.728s3.072 0.608 4.16 1.728c1.12 1.12 1.728 2.592 1.728 4.16s-0.608 3.072-1.728 4.16c-1.12 1.12-2.592 1.728-4.16 1.728s-3.072-0.608-4.16-1.728l-1.408-1.408h2.912c0.064 0 0.128-0.064 0.128-0.128s-0.064-0.128-0.128-0.128h-3.168c-0.064 0-0.128 0.064-0.128 0.128v3.168c0 0.064 0.064 0.128 0.128 0.128s0.128-0.064 0.128-0.128v-2.88z">
             </path>
           </symbol>
           <symbol id="pause" viewBox="0 0 32 32">
             <title>pause</title>
             <path
               d="M16 0.32c-8.64 0-15.68 7.040-15.68 15.68s7.040 15.68 15.68 15.68 15.68-7.040 15.68-15.68-7.040-15.68-15.68-15.68zM16 29.216c-7.296 0-13.216-5.92-13.216-13.216s5.92-13.216 13.216-13.216 13.216 5.92 13.216 13.216-5.92 13.216-13.216 13.216z">
             </path>
             <path
               d="M16 32c-8.832 0-16-7.168-16-16s7.168-16 16-16 16 7.168 16 16-7.168 16-16 16zM16 0.672c-8.448 0-15.328 6.88-15.328 15.328s6.88 15.328 15.328 15.328c8.448 0 15.328-6.88 15.328-15.328s-6.88-15.328-15.328-15.328zM16 29.568c-7.488 0-13.568-6.080-13.568-13.568s6.080-13.568 13.568-13.568c7.488 0 13.568 6.080 13.568 13.568s-6.080 13.568-13.568 13.568zM16 3.104c-7.104 0-12.896 5.792-12.896 12.896s5.792 12.896 12.896 12.896c7.104 0 12.896-5.792 12.896-12.896s-5.792-12.896-12.896-12.896z">
             </path>
             <path
               d="M12.16 22.336v0c-0.896 0-1.6-0.704-1.6-1.6v-9.472c0-0.896 0.704-1.6 1.6-1.6v0c0.896 0 1.6 0.704 1.6 1.6v9.504c0 0.864-0.704 1.568-1.6 1.568z">
             </path>
             <path
               d="M19.84 22.336v0c-0.896 0-1.6-0.704-1.6-1.6v-9.472c0-0.896 0.704-1.6 1.6-1.6v0c0.896 0 1.6 0.704 1.6 1.6v9.504c0 0.864-0.704 1.568-1.6 1.568z">
             </path>
           </symbol>
           <symbol id="play" viewBox="0 0 32 32">
             <title>play</title>
             <path
               d="M21.216 15.168l-7.616-5.088c-0.672-0.416-1.504 0.032-1.504 0.832v10.176c0 0.8 0.896 1.248 1.504 0.832l7.616-5.088c0.576-0.416 0.576-1.248 0-1.664z">
             </path>
             <path
               d="M13.056 22.4c-0.224 0-0.416-0.064-0.608-0.16-0.448-0.224-0.704-0.672-0.704-1.152v-10.176c0-0.48 0.256-0.928 0.672-1.152s0.928-0.224 1.344 0.064l7.616 5.088c0.384 0.256 0.608 0.672 0.608 1.088s-0.224 0.864-0.608 1.088l-7.616 5.088c-0.192 0.16-0.448 0.224-0.704 0.224zM13.056 10.272c-0.096 0-0.224 0.032-0.32 0.064-0.224 0.128-0.352 0.32-0.352 0.576v10.176c0 0.256 0.128 0.48 0.352 0.576 0.224 0.128 0.448 0.096 0.64-0.032l7.616-5.088c0.192-0.128 0.288-0.32 0.288-0.544s-0.096-0.416-0.288-0.544l-7.584-5.088c-0.096-0.064-0.224-0.096-0.352-0.096z">
             </path>
             <path
               d="M16 0.32c-8.64 0-15.68 7.040-15.68 15.68s7.040 15.68 15.68 15.68 15.68-7.040 15.68-15.68-7.040-15.68-15.68-15.68zM16 29.216c-7.296 0-13.216-5.92-13.216-13.216s5.92-13.216 13.216-13.216 13.216 5.92 13.216 13.216-5.92 13.216-13.216 13.216z">
             </path>
             <path
               d="M16 32c-8.832 0-16-7.168-16-16s7.168-16 16-16 16 7.168 16 16-7.168 16-16 16zM16 0.672c-8.448 0-15.328 6.88-15.328 15.328s6.88 15.328 15.328 15.328c8.448 0 15.328-6.88 15.328-15.328s-6.88-15.328-15.328-15.328zM16 29.568c-7.488 0-13.568-6.080-13.568-13.568s6.080-13.568 13.568-13.568c7.488 0 13.568 6.080 13.568 13.568s-6.080 13.568-13.568 13.568zM16 3.104c-7.104 0-12.896 5.792-12.896 12.896s5.792 12.896 12.896 12.896c7.104 0 12.896-5.792 12.896-12.896s-5.792-12.896-12.896-12.896z">
             </path>
           </symbol>
           <symbol id="link" viewBox="0 0 32 32">
             <title>link</title>
             <path
               d="M23.584 17.92c0 0.864 0 1.728 0 2.56 0 1.312 0 2.656 0 3.968 0 0.352 0.032 0.736-0.032 1.12 0.032-0.16 0.032-0.288 0.064-0.448-0.032 0.224-0.096 0.448-0.16 0.64 0.064-0.128 0.128-0.256 0.16-0.416-0.096 0.192-0.192 0.384-0.32 0.576 0.096-0.128 0.16-0.224 0.256-0.352-0.128 0.16-0.288 0.32-0.48 0.48 0.128-0.096 0.224-0.16 0.352-0.256-0.192 0.128-0.352 0.256-0.576 0.32 0.128-0.064 0.256-0.128 0.416-0.16-0.224 0.096-0.416 0.16-0.64 0.16 0.16-0.032 0.288-0.032 0.448-0.064-0.256 0.032-0.512 0.032-0.768 0.032-0.448 0-0.896 0-1.312 0-1.472 0-2.976 0-4.448 0-1.824 0-3.616 0-5.44 0-1.568 0-3.104 0-4.672 0-0.736 0-1.44 0-2.176 0-0.128 0-0.224 0-0.352-0.032 0.16 0.032 0.288 0.032 0.448 0.064-0.224-0.032-0.448-0.096-0.64-0.16 0.128 0.064 0.256 0.128 0.416 0.16-0.192-0.096-0.384-0.192-0.576-0.32 0.128 0.096 0.224 0.16 0.352 0.256-0.16-0.128-0.32-0.288-0.48-0.48 0.096 0.128 0.16 0.224 0.256 0.352-0.128-0.192-0.256-0.352-0.32-0.576 0.064 0.128 0.128 0.256 0.16 0.416-0.096-0.224-0.16-0.416-0.16-0.64 0.032 0.16 0.032 0.288 0.064 0.448-0.032-0.256-0.032-0.512-0.032-0.768 0-0.448 0-0.896 0-1.312 0-1.472 0-2.976 0-4.448 0-1.824 0-3.616 0-5.44 0-1.568 0-3.104 0-4.672 0-0.736 0-1.44 0-2.176 0-0.128 0-0.224 0.032-0.352-0.032 0.16-0.032 0.288-0.064 0.448 0.032-0.224 0.096-0.448 0.16-0.64-0.064 0.128-0.128 0.256-0.16 0.416 0.096-0.192 0.192-0.384 0.32-0.576-0.096 0.128-0.16 0.224-0.256 0.352 0.128-0.16 0.288-0.32 0.48-0.48-0.128 0.096-0.224 0.16-0.352 0.256 0.192-0.128 0.352-0.256 0.576-0.32-0.128 0.064-0.256 0.128-0.416 0.16 0.224-0.096 0.416-0.16 0.64-0.16-0.16 0.032-0.288 0.032-0.448 0.064 0.48-0.064 0.96-0.032 1.44-0.032 0.992 0 1.952 0 2.944 0 1.216 0 2.432 0 3.616 0 1.056 0 2.112 0 3.168 0 0.512 0 1.024 0 1.536 0 0 0 0 0 0.032 0 0.448 0 0.896-0.192 1.184-0.48s0.512-0.768 0.48-1.184c-0.032-0.448-0.16-0.896-0.48-1.184s-0.736-0.48-1.184-0.48c-0.64 0-1.28 0-1.92 0-1.408 0-2.816 0-4.224 0-1.44 0-2.848 0-4.256 0-0.672 0-1.344 0-2.016 0-0.736 0-1.472 0.192-2.112 0.576s-1.216 0.96-1.568 1.6c-0.384 0.64-0.544 1.376-0.544 2.144 0 0.672 0 1.376 0 2.048 0 1.28 0 2.56 0 3.84 0 1.504 0 3.040 0 4.544 0 1.408 0 2.848 0 4.256 0 0.992 0 1.952 0 2.944 0 0.224 0 0.448 0 0.64 0 0.864 0.224 1.76 0.768 2.464 0.16 0.192 0.288 0.384 0.48 0.576s0.384 0.352 0.608 0.512c0.32 0.224 0.64 0.384 1.024 0.512 0.448 0.16 0.928 0.224 1.408 0.224 0.16 0 0.32 0 0.48 0 0.896 0 1.792 0 2.72 0 1.376 0 2.784 0 4.16 0 1.536 0 3.040 0 4.576 0 1.312 0 2.656 0 3.968 0 0.768 0 1.536 0 2.336 0 0.416 0 0.832-0.032 1.248-0.128 1.504-0.32 2.784-1.6 3.104-3.104 0.128-0.544 0.128-1.056 0.128-1.568 0-0.608 0-1.184 0-1.792 0-1.408 0-2.816 0-4.224 0-0.256 0-0.512 0-0.768 0-0.448-0.192-0.896-0.48-1.184s-0.768-0.512-1.184-0.48c-0.448 0.032-0.896 0.16-1.184 0.48-0.384 0.384-0.576 0.768-0.576 1.248v0z">
             </path>
             <path
               d="M32 11.232c0-0.8 0-1.568 0-2.368 0-1.248 0-2.528 0-3.776 0-0.288 0-0.576 0-0.864 0-0.896-0.768-1.696-1.696-1.696-0.8 0-1.568 0-2.368 0-1.248 0-2.528 0-3.776 0-0.288 0-0.576 0-0.864 0-0.448 0-0.896 0.192-1.184 0.48s-0.512 0.768-0.48 1.184c0.032 0.448 0.16 0.896 0.48 1.184s0.736 0.48 1.184 0.48c0.8 0 1.568 0 2.368 0 1.248 0 2.528 0 3.776 0 0.288 0 0.576 0 0.864 0-0.576-0.576-1.12-1.12-1.696-1.696 0 0.8 0 1.568 0 2.368 0 1.248 0 2.528 0 3.776 0 0.288 0 0.576 0 0.864 0 0.448 0.192 0.896 0.48 1.184s0.768 0.512 1.184 0.48c0.448-0.032 0.896-0.16 1.184-0.48 0.352-0.256 0.544-0.64 0.544-1.12v0z">
             </path>
             <path
               d="M15.040 21.888c0.16-0.16 0.288-0.288 0.448-0.448 0.384-0.384 0.8-0.8 1.184-1.184 0.608-0.608 1.184-1.184 1.792-1.792 0.704-0.704 1.44-1.44 2.176-2.176 0.8-0.8 1.568-1.568 2.368-2.368s1.6-1.6 2.4-2.4c0.736-0.736 1.504-1.504 2.24-2.24 0.64-0.64 1.248-1.248 1.888-1.888 0.448-0.448 0.896-0.896 1.344-1.344 0.224-0.224 0.448-0.416 0.64-0.64 0 0 0.032-0.032 0.032-0.032 0.32-0.32 0.48-0.768 0.48-1.184s-0.192-0.896-0.48-1.184c-0.32-0.288-0.736-0.512-1.184-0.48-0.512 0.032-0.928 0.16-1.248 0.48-0.16 0.16-0.288 0.288-0.448 0.448-0.384 0.384-0.8 0.8-1.184 1.184-0.608 0.608-1.184 1.184-1.792 1.792-0.704 0.704-1.44 1.44-2.176 2.176-0.8 0.8-1.568 1.568-2.368 2.368s-1.6 1.6-2.4 2.4c-0.736 0.736-1.504 1.504-2.24 2.24-0.64 0.64-1.248 1.248-1.888 1.888-0.448 0.448-0.896 0.896-1.344 1.344-0.224 0.224-0.448 0.416-0.64 0.64 0 0-0.032 0.032-0.032 0.032-0.32 0.32-0.48 0.768-0.48 1.184s0.192 0.896 0.48 1.184c0.32 0.288 0.736 0.512 1.184 0.48 0.48 0 0.928-0.16 1.248-0.48v0z">
             </path>
           </symbol>
           <symbol id="next" viewBox="0 0 32 32">
             <title>next</title>
             <path
               d="M2.304 18.304h14.688l-4.608 4.576c-0.864 0.864-0.864 2.336 0 3.232 0.864 0.864 2.336 0.864 3.232 0l8.448-8.48c0.864-0.864 0.864-2.336 0-3.232l-8.448-8.448c-0.448-0.448-1.056-0.672-1.632-0.672s-1.184 0.224-1.632 0.672c-0.864 0.864-0.864 2.336 0 3.232l4.64 4.576h-14.688c-1.248 0-2.304 0.992-2.304 2.272s1.024 2.272 2.304 2.272z">
             </path>
             <path
               d="M29.696 26.752c1.248 0 2.304-1.024 2.304-2.304v-16.928c0-1.248-1.024-2.304-2.304-2.304s-2.304 1.024-2.304 2.304v16.928c0.064 1.28 1.056 2.304 2.304 2.304z">
             </path>
           </symbol>
           <symbol id="prev" viewBox="0 0 32 32">
             <title>prev</title>
             <path
               d="M29.696 13.696h-14.688l4.576-4.576c0.864-0.864 0.864-2.336 0-3.232-0.864-0.864-2.336-0.864-3.232 0l-8.448 8.48c-0.864 0.864-0.864 2.336 0 3.232l8.448 8.448c0.448 0.448 1.056 0.672 1.632 0.672s1.184-0.224 1.632-0.672c0.864-0.864 0.864-2.336 0-3.232l-4.608-4.576h14.688c1.248 0 2.304-1.024 2.304-2.304s-1.024-2.24-2.304-2.24z">
             </path>
             <path
               d="M2.304 5.248c-1.248 0-2.304 1.024-2.304 2.304v16.928c0 1.248 1.024 2.304 2.304 2.304s2.304-1.024 2.304-2.304v-16.928c-0.064-1.28-1.056-2.304-2.304-2.304z">
             </path>
           </symbol>
    </svg>
  