<svg xmlns="http://www.w3.org/2000/svg" xmlns:xlink="http://www.w3.org/1999/xlink">
<symbol  viewBox="0 0 1024 1024" id="playlist">
    <title>playlist</title>
 <path d="M716.8 333.1072V757.76a143.36 143.36 0 1 1-81.92-129.55648V163.84a40.96 40.96 0 0 1 53.37088-39.03488l86.016 24.576A182.0672 182.0672 0 0 1 901.12 322.84672v62.23872a20.48 20.48 0 0 1-27.89376 19.08736L716.8 333.1072zM163.84 245.76h327.68a40.96 40.96 0 1 1 0 81.92H163.84a40.96 40.96 0 1 1 0-81.92z m0 143.36h327.68a40.96 40.96 0 1 1 0 81.92H163.84a40.96 40.96 0 1 1 0-81.92z m0 143.36h225.28a40.96 40.96 0 1 1 0 81.92H163.84a40.96 40.96 0 1 1 0-81.92z"></path>

</symbol>


<symbol viewBox="0 0 32 32" id="music">
<title>music</title>
<path d="M30 0h2v23c0 2.761-3.134 5-7 5s-7-2.239-7-5c0-2.761 3.134-5 7-5 1.959 0 3.729 0.575 5 1.501v-11.501l-16 3.556v15.444c0 2.761-3.134 5-7 5s-7-2.239-7-5c0-2.761 3.134-5 7-5 1.959 0 3.729 0.575 5 1.501v-19.501l18-4z"></path>
</symbol>
    
    <symbol viewBox="0 0 1024 1024" id="music2">
<title>music2</title>
<path d="M405.333333 704m-192 0a192 192 0 1 0 384 0 192 192 0 1 0-384 0Z" ></path><path d="M512 128v576h85.333333V298.666667l234.666667 64v-149.333334z" ></path>
</symbol>
      <symbol viewBox="0 0 24 24" id="heart">
        <path
     
          d="M17,0c-1.9,0-3.7,0.8-5,2.1C10.7,0.8,8.9,0,7,0C3.1,0,0,3.1,0,7c0,6.4,10.9,15.4,11.4,15.8 c0.2,0.2,0.4,0.2,0.6,0.2s0.4-0.1,0.6-0.2C13.1,22.4,24,13.4,24,7C24,3.1,20.9,0,17,0z"
        />
      </symbol>
      <symbol viewBox="0 0 32 32" id="arrow">
        <title>Arrow</title>
        <path
      
          d="M16,0C7.2,0,0,7.2,0,16s7.2,16,16,16s16-7.2,16-16S24.8,0,16,0z M22.8,13.6l-6,8C16.6,21.9,16.3,22,16,22 s-0.6-0.1-0.8-0.4l-6-8c-0.2-0.3-0.3-0.7-0.1-1S9.6,12,10,12h12c0.4,0,0.7,0.2,0.9,0.6S23,13.3,22.8,13.6z"
        />
      </symbol>
      
           <symbol id="pause" viewBox="0 0 32 32">
           
             <title>pause</title>
<path d="M16 0c-8.837 0-16 7.163-16 16s7.163 16 16 16 16-7.163 16-16-7.163-16-16-16zM16 29c-7.18 0-13-5.82-13-13s5.82-13 13-13 13 5.82 13 13-5.82 13-13 13zM10 10h4v12h-4zM18 10h4v12h-4z"></path>
           </symbol>
        <symbol id="pause2" viewBox="0 0 1024 1024">
           
             <title>pause2</title>
<path d="M341.332992 142.222336c47.128576 0 85.334016 38.20544 85.334016 85.332992v568.889344c0 47.128576-38.20544 85.332992-85.334016 85.332992-47.127552 0-85.332992-38.20544-85.332992-85.332992V227.555328c0-47.128576 38.20544-85.332992 85.332992-85.332992z m341.334016 0c47.127552 0 85.332992 38.20544 85.332992 85.332992v568.889344c0 47.128576-38.20544 85.332992-85.332992 85.332992-47.128576 0-85.334016-38.20544-85.334016-85.332992V227.555328c0-47.128576 38.20544-85.332992 85.334016-85.332992z" ></path>
           </symbol>
    
    
    
           <symbol id="play" viewBox="0 0 32 32">
             <title>play</title>
             <path d="M16 0c-8.837 0-16 7.163-16 16s7.163 16 16 16 16-7.163 16-16-7.163-16-16-16zM16 29c-7.18 0-13-5.82-13-13s5.82-13 13-13 13 5.82 13 13-5.82 13-13 13zM12 9l12 7-12 7z"></path>
           </symbol> 
    
    <symbol id="play2" viewBox="0 0 1024 1024" >
             <title>play</title>
           <path d="M256 252.245333c0-6.613333 1.578667-13.098667 4.565333-18.901333 9.813333-18.773333 32-25.557333 49.621334-15.104l439.04 259.754667c5.973333 3.541333 10.88 8.789333 14.165333 15.146666 9.813333 18.773333 3.413333 42.453333-14.165333 52.864L310.186667 805.76a34.730667 34.730667 0 0 1-17.706667 4.906667C272.341333 810.666667 256 793.258667 256 771.797333V252.245333z"></path>
           </symbol>
          
           <symbol id="next" viewBox="0 0 32 32">
             
               <title>circle-right</title>
<path d="M16 0c-8.837 0-16 7.163-16 16s7.163 16 16 16 16-7.163 16-16-7.163-16-16-16zM16 29c-7.18 0-13-5.82-13-13s5.82-13 13-13 13 5.82 13 13-5.82 13-13 13z"></path>
<path d="M11.086 22.086l2.829 2.829 8.914-8.914-8.914-8.914-2.828 2.828 6.086 6.086z"></path>
            
           </symbol>
    
     <symbol id="next2"  viewBox="0 0 1024 1024">
             <title>next</title>
             <path d="M768 277.333333v469.333334a21.333333 21.333333 0 0 1-21.333333 21.333333h-42.666667a21.333333 21.333333 0 0 1-21.333333-21.333333v-469.333334a21.333333 21.333333 0 0 1 21.333333-21.333333h42.666667a21.333333 21.333333 0 0 1 21.333333 21.333333zM311.04 251.733333a31.146667 31.146667 0 0 0-34.133333 0l-5.12 2.56a32.426667 32.426667 0 0 0-15.786667 26.026667v462.933333a32.853333 32.853333 0 0 0 15.786667 27.733334l5.12 2.56a32 32 0 0 0 34.133333 0l314.453333-221.013334a32 32 0 0 0 13.653334-26.026666v-26.453334a32 32 0 0 0-13.653334-26.026666z" ></path>
           </symbol>
    
    
    
           <symbol id="prev" viewBox="0 0 32 32">
            
         <title>circle-left</title>
<path d="M16 32c8.837 0 16-7.163 16-16s-7.163-16-16-16-16 7.163-16 16 7.163 16 16 16zM16 3c7.18 0 13 5.82 13 13s-5.82 13-13 13-13-5.82-13-13 5.82-13 13-13z"></path>
<path d="M20.914 9.914l-2.829-2.829-8.914 8.914 8.914 8.914 2.828-2.828-6.086-6.086z"></path>
               
    </symbol> 
    
    <symbol id="prev2"  viewBox="0 0 1024 1024">
             <title>prev</title>
             <path d="M341.333333 746.666667a21.333333 21.333333 0 0 1-21.333333 21.333333h-42.666667a21.333333 21.333333 0 0 1-21.333333-21.333333v-469.333334a21.333333 21.333333 0 0 1 21.333333-21.333333h42.666667a21.333333 21.333333 0 0 1 21.333333 21.333333zM768 280.32a32.853333 32.853333 0 0 0-15.786667-27.733333l-5.12-2.56a31.146667 31.146667 0 0 0-34.133333 0l-314.453333 222.293333a32 32 0 0 0-13.653334 26.026667v26.453333a32 32 0 0 0 13.653334 26.026667l314.453333 221.013333a31.146667 31.146667 0 0 0 34.133333 0l5.12-2.56a32.426667 32.426667 0 0 0 15.786667-27.733333z"></path>
           </symbol>
    
    
       <symbol id="music3" viewBox="0 0 1024 1024">
             <title>music3</title>

<path d="M274.869627 824.415556c1.355668-8.162251 2.57012-16.352744 4.076418-24.486752 6.881898-37.167896 23.714774-69.64744 48.305084-98.163538 40.688866-47.184775 92.844424-75.183084 153.717679-87.082835 40.990126-8.011621 81.989666-6.618295 122.311373 5.328528 2.080574 0.611933 4.227048 0.979094 7.635046 1.751071-9.696791-13.650823-18.612191-26.218994-27.555833-38.777751-84.484472-118.649186-168.959529-237.307787-253.500487-355.919316-6.025191-8.454096-8.190494-16.992921-5.460329-27.480519 6.863069-26.322552 23.422929-45.480776 44.539339-61.24983 33.552781-25.061028 71.991615-39.935718 112.247422-50.140884 22.60388-5.723931 45.960908-8.46351 68.621274-14.008569 19.28061-4.716595 38.49532-10.38404 56.928638-17.642511C637.021249 44.624069 664.642983 28.403126 684.422555 0c3.191468 16.070314 7.2114 32.027655 9.320217 48.229769 1.703999 13.057718 2.089988 26.463768 1.355668 39.625044-2.984352 53.172309-24.477338 97.193859-67.002005 130.624253-28.450198 22.368521-61.475775 33.006748-96.798455 37.233796-21.088168 2.523049-42.374037 3.332684-64.111796 4.942539 0.310674 0.781392 0.753149 2.457148 1.581613 3.916374a482585.489381 482585.489381 0 0 0 122.254886 214.280261c40.058104 70.174644 80.153866 140.321044 120.155485 210.514517 8.46351 14.846447 18.197959 29.241004 24.618552 44.944158 19.205296 47.024731 17.143551 94.360136-3.08791 140.575232-27.791192 63.490448-76.92474 104.913634-140.772934 130.22885-37.111409 14.72406-75.926818 21.031682-115.702491 18.207373-61.005057-4.330606-114.544525-25.823591-155.967712-72.095173C288.680494 915.951384 274.869627 870.574166 274.869627 824.415556c1.355668-8.171665 0 6.119334 0 0z" ></path>
               
    </symbol>
               
               

    </svg>
  
    
    
    
    
    
    
    