<?xml version="1.0" standalone="no"?><!DOCTYPE svg PUBLIC "-//W3C//DTD SVG 1.1//EN" "http://www.w3.org/Graphics/SVG/1.1/DTD/svg11.dtd"><svg t="1585034909921" class="icon" viewBox="0 0 1024 1024" version="1.1" xmlns="http://www.w3.org/2000/svg" p-id="35952" xmlns:xlink="http://www.w3.org/1999/xlink" width="200" height="200"><defs><style type="text/css"></style></defs><path d="M512 85.333333a426.666667 426.666667 0 0 1 426.666667 426.666667 426.666667 426.666667 0 0 1-426.666667 426.666667A426.666667 426.666667 0 0 1 85.333333 512 426.666667 426.666667 0 0 1 512 85.333333m0 85.333334c-188.16 0-341.333333 153.173333-341.333333 341.333333s153.173333 341.333333 341.333333 341.333333 341.333333-153.173333 341.333333-341.333333-153.173333-341.333333-341.333333-341.333333m170.666667 170.666666v341.333334l-213.333334-170.666667m-42.666666-170.666667v341.333334H341.333333V341.333333" fill="" p-id="35953"></path></svg>