<?xml version="1.0" standalone="no"?><!DOCTYPE svg PUBLIC "-//W3C//DTD SVG 1.1//EN" "http://www.w3.org/Graphics/SVG/1.1/DTD/svg11.dtd"><svg t="1585034954425" class="icon" viewBox="0 0 1024 1024" version="1.1" xmlns="http://www.w3.org/2000/svg" p-id="37284" xmlns:xlink="http://www.w3.org/1999/xlink" width="200" height="200"><defs><style type="text/css"></style></defs><path d="M512 85.333333A426.666667 426.666667 0 0 0 85.333333 512a426.666667 426.666667 0 0 0 426.666667 426.666667 426.666667 426.666667 0 0 0 426.666667-426.666667A426.666667 426.666667 0 0 0 512 85.333333m0 85.333334c188.16 0 341.333333 153.173333 341.333333 341.333333s-153.173333 341.333333-341.333333 341.333333-341.333333-153.173333-341.333333-341.333333 153.173333-341.333333 341.333333-341.333333M341.333333 341.333333v341.333334l213.333334-170.666667m42.666666-170.666667v341.333334h85.333334V341.333333"  p-id="37285"></path></svg>