<?xml version="1.0" standalone="no"?><!DOCTYPE svg PUBLIC "-//W3C//DTD SVG 1.1//EN" "http://www.w3.org/Graphics/SVG/1.1/DTD/svg11.dtd"><svg t="1585034373434" class="icon" viewBox="0 0 1024 1024" version="1.1" xmlns="http://www.w3.org/2000/svg" p-id="1024" xmlns:xlink="http://www.w3.org/1999/xlink" width="200" height="200"><defs><style type="text/css"></style></defs><path d="M507.41303 64.944128c247.424182 0 448.001407 200.577225 448.001407 448.001407S754.837212 960.946942 507.41303 960.946942 59.411623 760.369717 59.411623 512.945535 259.988848 64.944128 507.41303 64.944128z m229.861178 312.817542c-15.829524-15.866363-36.959773-15.866363-52.789297 0L473.278605 588.939323l-105.6052-105.59906c-15.829524-15.829524-36.959773-15.829524-52.789296 0-15.829524 15.791661-15.829524 36.922934 0 52.752458l132.010592 132.048455c7.91425 7.91425 17.154705 11.872399 26.39516 11.872399l3.462869-0.185219c8.066723-0.865717 16.006556-4.761444 22.932292-11.686156L737.275231 430.55199c15.8285-15.830547 15.8285-36.96182-0.001023-52.79032z" p-id="1025"></path></svg>